<?xml version="1.0" encoding="UTF-8" standalone="no"?>
<svg
   version="1.0"
   width="1010.000000pt"
   height="1280.000000pt"
   viewBox="0 0 1010.000000 1280.000000"
   preserveAspectRatio="xMidYMid meet"
   id="svg18"
   sodipodi:docname="LeftFootSVG.svg"
   inkscape:version="1.1.1 (3bf5ae0d25, 2021-09-20)"
   xmlns:inkscape="http://www.inkscape.org/namespaces/inkscape"
   xmlns:sodipodi="http://sodipodi.sourceforge.net/DTD/sodipodi-0.dtd"
   xmlns="http://www.w3.org/2000/svg"
   xmlns:svg="http://www.w3.org/2000/svg">
  <defs
     id="defs22">
    <rect
       x="766.34304"
       y="940.32362"
       width="563.3657"
       height="739.41748"
       id="rect34663" />
    <rect
       x="874.04531"
       y="1118.4466"
       width="426.66667"
       height="478.4466"
       id="rect10809" />
  </defs>
  <sodipodi:namedview
     id="namedview20"
     pagecolor="#505050"
     bordercolor="#eeeeee"
     borderopacity="1"
     inkscape:pageshadow="0"
     inkscape:pageopacity="0"
     inkscape:pagecheckerboard="0"
     inkscape:document-units="pt"
     showgrid="false"
     inkscape:zoom="0.4828125"
     inkscape:cx="675.21036"
     inkscape:cy="851.26214"
     inkscape:window-width="1815"
     inkscape:window-height="1360"
     inkscape:window-x="1609"
     inkscape:window-y="0"
     inkscape:window-maximized="0"
     inkscape:current-layer="svg18" />
  <metadata
     id="metadata2">
Created by potrace 1.15, written by Peter Selinger 2001-2017
</metadata>
  <g
     transform="translate(0.000000,1280.000000) scale(0.100000,-0.100000)"
     fill="#000000"
     stroke="none"
     id="g16">
    <path
       class="fill"
       d="M8370 12786 c-591 -86 -1096 -464 -1360 -1020 -265 -557 -227 -1194 101 -1678 84 -124 266 -305 388 -387 414 -275 907 -333 1396 -164 769 267 1283 1075 1194 1881 -22 198 -69 362 -154 537 -209 428 -579 715 -1053 815 -127 27 -380 35 -512 16z m419 -172 c802 -119 1298 -913 1094 -1754 -72 -296 -220 -557 -443 -780 -169 -169 -339 -282 -545 -363 -386 -152 -790 -141 -1140 33 -388 192 -651 551 -731 995 -24 133 -24 383 0 515 113 633 565 1144 1161 1314 192 55 407 69 604 40z"
       id="path4" />
    <path
       class="fill"
       d="M3620 12610 c-270 -42 -530 -278 -620 -561 -47 -150 -64 -382 -40 -554 46 -319 189 -573 402 -713 325 -211 669 -186 929 68 207 202 291 441 276 780 -15 332 -139 622 -334 784 -82 68 -241 151 -335 175 -91 24 -206 32 -278 21z m269 -196 c199 -67 340 -199 423 -396 103 -245 116 -572 33 -795 -66 -174 -221 -332 -384 -389 -75 -27 -198 -32 -279 -13 -71 17 -199 80 -270 133 -113 84 -208 243 -259 434 -24 88 -27 115 -27 292 -1 175 1 203 22 274 45 157 138 297 254 382 153 112 309 137 487 78z"
       id="path6" />
    <path
       class="fill"
       d="M5489 12590 c-64 -10 -175 -50 -228 -82 -284 -170 -492 -557 -508 -943 -6 -139 4 -233 36 -332 67 -208 229 -396 431 -498 144 -73 284 -101 458 -92 154 8 233 33 352 112 243 161 434 514 469 866 10 99 -1 259 -24 344 -77 295 -331 535 -645 610 -79 19 -265 27 -341 15z m326 -184 c33 -9 98 -35 145 -58 68 -34 102 -59 170 -128 162 -162 226 -349 200 -587 -42 -394 -287 -749 -560 -812 -25 -6 -90 -11 -146 -11 -201 0 -361 66 -504 209 -98 98 -146 180 -181 306 -19 70 -21 97 -16 220 5 151 21 229 76 371 101 262 300 464 496 503 69 14 248 6 320 -13z"
       id="path8" />
    <path
       class="fill"
       d="M1870 11865 c-257 -52 -478 -228 -571 -455 -38 -93 -49 -156 -49 -274 0 -348 247 -748 555 -900 379 -188 875 -19 1051 359 48 104 64 180 65 302 0 429 -345 891 -723 967 -92 19 -238 19 -328 1z m308 -170 c179 -42 347 -188 467 -407 80 -147 126 -345 106 -463 -47 -292 -299 -495 -615 -495 -110 0 -186 18 -277 66 -131 69 -264 217 -346 385 -54 110 -72 166 -88 267 -39 258 80 479 323 601 112 57 299 77 430 46z"
       id="path10" />
    <path
       class="fill"
       d="M462 10670 c-111 -30 -188 -75 -272 -160 -83 -83 -126 -155 -161 -270 -30 -96 -33 -296 -6 -403 86 -345 376 -633 693 -688 103 -18 254 -7 337 25 188 71 327 229 383 436 26 96 23 289 -5 395 -64 238 -236 465 -444 584 -155 88 -374 122 -525 81z m293 -170 c279 -71 506 -353 531 -659 16 -190 -64 -372 -206 -467 -147 -98 -381 -84 -561 34 -350 229 -460 721 -219 976 53 56 141 110 206 125 67 15 167 12 249 -9z"
       id="path12" />
    <path
       class="fill"
       d="M4195 10549 c-602 -46 -1078 -180 -1680 -473 -483 -235 -830 -481 -1115 -791 -448 -487 -706 -1112 -870 -2107 -66 -399 -86 -683 -77 -1068 41 -1634 516 -3491 1184 -4625 447 -758 948 -1204 1524 -1355 552 -145 1072 -167 1489 -64 504 124 848 450 943 894 26 124 28 338 4 461 -61 308 -218 655 -565 1249 -462 790 -591 1047 -667 1333 -34 126 -47 313 -34 476 36 453 252 813 650 1081 341 229 811 390 1304 444 241 27 400 72 590 166 657 327 960 1142 785 2105 -78 422 -277 883 -528 1217 -308 410 -664 661 -1202 846 -274 94 -560 157 -910 198 -152 18 -658 26 -825 13z m666 -169 c677 -51 1310 -255 1703 -548 118 -88 303 -271 397 -392 464 -600 674 -1429 538 -2120 -91 -460 -334 -812 -685 -992 -165 -85 -310 -127 -529 -153 -443 -53 -820 -161 -1148 -327 -566 -287 -892 -715 -967 -1268 -16 -119 -14 -397 4 -498 53 -291 190 -597 540 -1202 104 -179 192 -329 196 -335 24 -31 205 -363 270 -495 132 -264 192 -417 238 -600 36 -146 37 -352 3 -485 -181 -701 -1016 -964 -2171 -684 -500 122 -925 462 -1327 1064 -655 981 -1140 2610 -1280 4295 -21 259 -24 904 -5 1090 29 281 104 708 178 1009 259 1059 743 1670 1705 2151 599 300 1044 433 1619 485 181 16 542 18 721 5z"
       id="path14" />
  </g>
  <path class="fill"
     class="fill"
     style="fill:#000000;fill-opacity:1;stroke-width:2.0712"
     d="m 503.30097,1680.5649 c -26.65782,-2.7866 -70.07565,-11.8476 -89.61193,-18.7015 C 351.87987,1640.1788 298.53921,1592.0003 248.22903,1512.4161 218.99832,1466.1768 183.6651,1388.4847 160.4267,1319.3528 98.834673,1136.1225 69.904265,907.8953 91.114044,772.55663 124.70559,558.21049 183.68533,466.69021 338.64078,388.46347 c 87.10242,-43.97224 154.12877,-61.97618 244.40129,-65.64861 101.16352,-4.11549 210.82592,21.19952 276.84795,63.90894 71.85069,46.47999 125.42084,136.94578 140.55788,237.36497 3.4674,23.00301 3.9289,69.1974 0.9039,90.47434 -10.31025,72.51811 -45.83095,125.25477 -101.74734,151.06162 -19.27069,8.89393 -33.23482,12.47758 -69.2154,17.76294 -76.25318,11.20118 -130.15974,29.86139 -177.80807,61.54969 -47.051,31.29107 -76.12603,69.98354 -91.47215,121.72934 -4.60117,15.5147 -5.70097,24.0029 -6.55816,50.615 -1.13197,35.1421 0.82386,51.1933 9.35355,76.7636 11.89522,35.6594 32.08985,75.3982 77.82112,153.1356 32.84695,55.8356 65.2272,120.2107 73.5138,146.1524 16.85828,52.7761 11.68234,93.8169 -16.48727,130.73 -15.55039,20.377 -44.73143,39.0655 -75.32146,48.2384 -31.84702,9.5499 -77.66791,12.7017 -120.12945,8.2632 z"
     id="path6230"
     transform="scale(0.75)" />
  <path class="fill"
     class="fill"
     style="fill:#000000;fill-opacity:1;stroke-width:2.0712"
     d="M 94.758678,461.78352 C 77.66841,457.18151 67.276935,450.91157 53.523082,436.90307 32.838584,415.83559 22.093979,387.97806 24.541921,361.76361 c 3.037751,-32.53056 26.571078,-56.26199 55.792329,-56.26199 59.23051,0 107.10166,70.86922 84.05664,124.43881 -5.95104,13.83357 -21.21388,27.66818 -35.06128,31.78042 -13.20119,3.92033 -20.19782,3.93301 -34.570932,0.0627 z"
     id="path6269"
     transform="scale(0.75)" />
  <path class="fill"
     class="fill"
     style="fill:#000000;fill-opacity:1;stroke-width:2.0712"
     d="m 260.5563,324.428 c -5.92381,-2.04686 -14.60607,-6.37957 -19.29391,-9.62824 -30.16445,-20.90398 -54.65948,-69.98595 -50.75394,-101.69836 6.23934,-50.66265 67.22872,-82.13665 113.95757,-58.8086 35.98485,17.96441 63.19437,64.93165 60.64355,104.67883 -2.53445,39.49204 -37.65277,69.3723 -81.35552,69.22096 -6.83496,-0.0237 -17.27394,-1.71773 -23.19775,-3.76459 z"
     id="path6308"
     transform="scale(0.75)" />
  <path class="fill"
     class="fill"
     style="fill:#000000;fill-opacity:1;stroke-width:2.0712"
     d="m 481.32997,259.20137 c -24.19813,-9.95419 -38.35852,-22.7904 -49.50889,-44.87916 -13.828,-27.3931 -18.70886,-69.81759 -11.3034,-98.24909 10.06402,-38.638402 41.74954,-67.399981 74.25195,-67.399981 21.64047,0 49.48657,13.702929 64.10907,31.547758 27.47802,33.533303 34.64175,97.765023 15.42345,138.290433 -6.81001,14.36018 -29.75572,35.8883 -43.88672,41.17538 -15.87357,5.93908 -33.90138,5.76081 -49.08546,-0.48534 z"
     id="path6347"
     transform="scale(0.75)" />
  <path class="fill"
     class="fill"
     style="fill:#000000;fill-opacity:1;stroke-width:2.0712"
     d="m 724.26541,260.95776 c -24.4285,-6.83027 -47.98852,-26.8706 -58.87404,-50.0787 -18.08857,-38.56509 -3.97138,-101.89032 30.37043,-136.23213 7.01709,-7.017098 17.38015,-15.032803 23.02902,-17.812677 9.01646,-4.437105 12.9264,-5.0316 32.01824,-4.86828 29.85671,0.255407 45.06609,6.297758 64.35833,25.568144 15.27048,15.253193 23.50433,30.147713 26.98207,48.808923 8.4408,45.29246 -20.4678,109.70178 -58.57552,130.5082 -9.47077,5.17095 -13.63398,6.09744 -29.65808,6.6001 -11.8905,0.373 -22.62765,-0.53 -29.65045,-2.49358 z"
     id="path6386"
     transform="scale(0.75)" />
  <path class="fill"
     class="fill"
     style="fill:#000000;fill-opacity:1;stroke-width:2.0712"
     d="m 1076.9652,420.40059 c -71.5563,-15.72362 -124.92754,-71.45244 -138.80013,-144.93133 -4.84055,-25.63892 -3.1822,-63.24934 3.92816,-89.08864 10.39142,-37.76274 28.04744,-68.79982 55.2669,-97.152236 27.50657,-28.651481 57.35837,-46.765577 96.23207,-58.393812 16.6084,-4.968012 22.0282,-5.579328 49.7088,-5.606713 25.561,-0.02529 34.005,0.77065 47.6375,4.490377 78.1642,21.327584 131.4309,93.704064 131.5054,178.683594 0.03,34.36887 -8.6952,68.46548 -25.7007,100.43253 -11.8891,22.34915 -23.4309,37.18986 -45.0339,57.90573 -29.0334,27.84116 -62.4979,45.44762 -101.82,53.56982 -18.915,3.90699 -55.3503,3.9523 -72.9241,0.0907 z"
     id="path6425"
     transform="scale(0.75)" />
  <path class="fill"
     style="fill:#ffffff;stroke-width:2.0712"
     d="m 503.30097,1679.5022 c -20.48062,-2.337 -65.22124,-11.3568 -81.92555,-16.5163 -74.73315,-23.0827 -142.67109,-90.7498 -197.3649,-196.5781 C 153.2663,1329.5231 105.86273,1152.4741 88.700848,961.0356 84.8887,918.5116 85.485886,820.67732 89.746593,789.71592 101.90838,701.33957 122.82591,622.69498 148.06366,570.45866 c 17.55528,-36.33539 37.62701,-64.60487 66.1842,-93.21532 36.69547,-36.76393 71.04472,-60.59114 129.82735,-90.05797 79.03979,-39.62144 140.43977,-56.64831 225.14978,-62.43644 103.88623,-7.09842 220.50508,18.29416 289.75391,63.091 66.49206,43.0135 118.16339,125.47097 137.24769,219.02091 5.58471,27.37595 7.75421,78.73655 4.38791,103.88337 -10.71985,80.08198 -53.12126,137.83519 -117.65008,160.24635 -7.7534,2.69281 -31.33982,7.7813 -52.41426,11.30779 -64.02554,10.71368 -105.33621,22.6246 -141.87702,40.90672 -44.01663,22.02245 -78.24039,50.07626 -100.42439,82.31953 -10.11883,14.7073 -24.10074,45.7552 -28.89745,64.1691 -5.4481,20.9144 -7.77449,67.9735 -4.49624,90.9513 5.30258,37.1664 24.55245,80.0279 77.53352,172.6348 73.0991,127.7719 90.41158,168.7322 90.4448,213.9873 0.0381,51.7744 -25.18367,89.8541 -75.58419,114.117 -35.68019,17.1764 -91.08712,24.1503 -143.94822,18.1181 z"
     id="path97"
     transform="scale(0.75)" />
  <path class="fill"
     style="fill:#ffffff;stroke-width:2.0712"
     d="M 95.751767,460.73704 C 74.629273,455.05035 60.20538,444.9236 46.274697,426.0001 34.791499,410.40128 29.430315,398.20386 26.470308,380.94243 c -4.2618,-24.8529 5.484074,-50.92658 24.07544,-64.41037 39.796412,-28.86321 105.080532,9.77782 117.194242,69.36612 6.6445,32.68486 -11.37769,66.45168 -40.00418,74.95284 -12.58604,3.73765 -17.74597,3.71926 -31.984043,-0.11398 z"
     id="path136"
     transform="scale(0.75)" />
  <path class="fill"
     style="fill:#ffffff;stroke-width:2.0712"
     d="M 266.63449,324.99562 C 253.321,321.859 241.86682,314.75024 228.90766,301.58137 206.17453,278.48035 192.2509,248.40572 191.85131,221.54071 c -0.20403,-13.71697 0.59185,-17.2853 6.55862,-29.40554 11.45061,-23.25947 33.2971,-38.78016 61.34954,-43.58534 16.3166,-2.79491 36.28052,1.53815 51.20173,11.11306 32.07221,20.58069 56.12382,66.31012 52.73873,100.27239 -1.62997,16.35322 -11.31862,35.9664 -22.55714,45.66343 -20.80082,17.94775 -49.23732,25.35068 -74.5083,19.39691 z"
     id="path175"
     transform="scale(0.75)" />
  <path class="fill"
     style="fill:#ffffff;stroke-width:2.0712"
     d="m 485.66875,259.44314 c -41.3831,-14.81482 -63.72536,-49.71007 -66.65387,-104.10333 -1.96199,-36.44142 6.46871,-61.208627 28.2401,-82.962073 20.92787,-20.910619 43.30226,-27.073534 67.96567,-18.720805 26.49693,8.973688 42.90171,23.075468 54.43856,46.796138 17.16765,35.29806 18.77312,85.59892 3.72429,116.68565 -5.99937,12.39305 -27.21875,33.47818 -39.84017,39.5881 -13.51394,6.54199 -33.94933,7.70146 -47.87458,2.71632 z"
     id="path214"
     transform="scale(0.75)" />
  <path class="fill"
     style="fill:#ffffff;stroke-width:2.0712"
     d="m 729.5763,260.98802 c -29.74177,-6.32746 -57.66877,-32.06386 -66.771,-61.53343 -11.68096,-37.81855 3.50842,-92.98154 33.99846,-123.471578 7.34072,-7.34072 17.63098,-15.42072 22.86725,-17.955556 8.54935,-4.138667 11.99635,-4.528937 33.79206,-3.825941 30.76251,0.99221 42.3973,5.770501 61.50727,25.260413 15.68439,15.996224 23.63221,31.500132 26.55759,51.806212 6.33889,44.00031 -23.96632,106.8271 -60.52592,125.47841 -9.9947,5.09893 -36.94664,7.32184 -51.42571,4.24147 z"
     id="path253"
     transform="scale(0.75)" />
  <path class="fill"
     style="fill:#ffffff;stroke-width:2.0712"
     d="m 1083.1982,420.4805 c -18.3031,-2.93019 -46.4811,-14.14268 -63.5587,-25.29108 -39.26772,-25.63422 -65.7643,-62.96577 -78.48196,-110.57471 -5.64987,-21.15051 -5.27364,-68.01054 0.74055,-92.23633 18.24051,-73.47466 70.19011,-130.9286 142.37371,-157.45915 l 18.6408,-6.851272 40.3884,-0.0534 c 40.0839,-0.05299 40.5251,-0.0045 58.5345,6.439259 44.1267,15.788388 78.0978,46.229996 99.0761,88.782433 15.4827,31.40505 19.1142,47.53099 19.1235,84.91909 0.01,26.92685 -0.7094,33.74749 -5.3727,51.17061 -10.1952,38.09079 -27.8576,69.31448 -55.2183,97.61495 -28.0656,29.02953 -58.6253,47.86343 -94.8474,58.45431 -20.2847,5.931 -60.4442,8.43992 -81.3985,5.08529 z"
     id="path292"
     transform="scale(0.75)" />
  <path class="fill"
     style="fill:#ffffff;stroke-width:2.0712"
     d="m 1088.4142,445.14173 c -31.3264,-4.25725 -61.5398,-15.61573 -87.307,-32.82237 -17.13404,-11.44169 -47.69645,-43.784 -58.22428,-61.61516 -20.2742,-34.3388 -29.45801,-68.65543 -29.55733,-110.4453 -0.11938,-50.22383 12.13332,-90.15784 40.93838,-133.42641 32.18032,-48.338623 80.46573,-83.235282 137.25703,-99.1980209 13.2059,-3.7118615 21.1215,-4.3611812 52.8156,-4.3324753 34.5764,0.031316 38.6013,0.4394692 55.4704,5.6251183 55.5304,17.0702699 97.0279,51.9844569 122.8733,103.3801979 42.1979,83.91399 24.381,187.3113 -45.0696,261.55426 -47.8421,51.14331 -124.5936,80.05963 -189.1965,71.28016 z m 70.4208,-24.65771 c 64.9055,-16.49378 115.8095,-58.92273 145.0996,-120.94204 44.3382,-93.88241 15.4436,-202.597168 -67.1885,-252.793474 -26.6362,-16.180635 -56.7261,-23.965334 -92.6322,-23.965334 -54.9145,0 -102.379,19.620082 -142.8024,59.029126 -31.51863,30.727842 -51.27129,65.111182 -62.23537,108.332852 -7.0896,27.94804 -7.10369,70.15273 -0.0327,98.0273 8.81198,34.73783 23.9763,61.98495 47.84278,85.96345 27.54569,27.67499 63.38519,44.73163 107.74159,51.27604 12.6876,1.87192 48.1632,-0.85085 64.2072,-4.92792 z"
     id="path331"
     transform="scale(0.75)" />
  <path class="fill"
     style="fill:#ffffff;stroke-width:2.0712"
     d="m 718.7055,282.96877 c -30.40725,-8.77869 -60.33029,-33.86459 -73.4597,-61.58476 -21.74047,-45.90074 -8.2775,-115.97824 30.38778,-158.174574 23.88305,-26.064137 41.52886,-34.212672 74.0882,-34.212672 12.24619,0 24.37728,1.283037 31.26152,3.306354 43.15086,12.682286 75.92117,47.60123 82.7682,88.194992 10.12012,59.99882 -23.31079,133.45925 -71.54525,157.2122 -13.70522,6.74912 -15.53735,7.09963 -39.27807,7.51431 -15.55205,0.27165 -28.40188,-0.57536 -34.22268,-2.25585 z m 63.93032,-23.25824 c 16.16648,-7.19213 34.43768,-26.70958 45.36271,-48.45685 12.6738,-25.22833 17.74498,-47.35445 16.56724,-72.28464 C 843.4076,114.4532 838.46814,100.75852 824.89359,84.4277 812.22935,69.192036 801.39383,61.37822 783.68983,54.714451 c -12.61961,-4.750007 -16.62791,-5.269078 -35.96871,-4.65792 -27.14979,0.857917 -36.17004,4.950676 -55.07215,24.987916 -35.7021,37.846103 -48.0334,100.688753 -27.61229,140.717443 5.34105,10.46932 20.65902,27.09848 32.4163,35.19108 23.31238,16.04604 60.26112,19.8447 85.18284,8.75756 z"
     id="path370"
     transform="scale(0.75)" />
  <path class="fill"
     style="fill:#ffffff;stroke-width:2.0712"
     d="m 493.98058,285.83032 c -35.93852,-5.52687 -66.27818,-28.66223 -82.84967,-63.1766 -12.63009,-26.3054 -16.22965,-42.47174 -16.14085,-72.49191 0.14326,-48.43164 14.30031,-80.836217 45.58627,-104.344032 31.63314,-23.768687 61.59634,-26.049589 99.22033,-7.552996 24.5751,12.081533 39.17272,26.379197 50.52897,49.490703 12.45048,25.338405 16.87609,45.024995 17.05564,75.869115 0.2345,40.28657 -8.6923,65.88532 -31.2988,89.75335 -24.38496,25.74575 -52.7659,36.96387 -82.10189,32.45237 z m 42.45955,-26.43554 c 21.68394,-10.23284 41.57259,-35.91461 47.89037,-61.83978 1.35527,-5.5614 2.4061,-20.83008 2.33517,-33.9304 -0.33999,-62.79386 -28.51858,-104.950349 -76.89392,-115.036896 -34.78141,-7.25213 -67.01429,11.075509 -84.73074,48.177953 -7.68895,16.102493 -7.69526,16.138383 -8.39935,47.749483 -0.62059,27.86241 -0.16514,33.411 3.81932,46.52894 10.15241,33.4246 25.38981,53.46525 49.76873,65.45719 24.08414,11.84694 45.27519,12.77301 66.21042,2.89351 z"
     id="path409"
     transform="scale(0.75)" />
  <path class="fill"
     style="fill:#ffffff;stroke-width:2.0712"
     d="m 271.6326,349.73792 c -41.71098,-5.17706 -81.41376,-43.29644 -98.92595,-94.98064 -2.83772,-8.37503 -3.86568,-17.45314 -3.88194,-34.28217 -0.0215,-22.2926 0.18058,-23.30073 7.73701,-38.59013 13.03153,-26.36751 38.53034,-47.05497 67.20433,-54.5236 42.58445,-11.09184 85.00863,4.99306 113.64503,43.08789 30.46898,40.5327 38.75062,86.6634 21.98879,122.48264 -18.25744,39.01523 -62.63545,62.40767 -107.76727,56.80601 z m 50.4386,-27.31599 c 16.28022,-7.50592 32.30976,-23.44291 39.71619,-39.48689 14.54961,-31.5177 1.46755,-79.13523 -30.65293,-111.57388 -8.87265,-8.96054 -18.23275,-16.05316 -25.9668,-19.67637 -10.87946,-5.09675 -14.37992,-5.66537 -34.8764,-5.66537 -21.24255,0 -23.71082,0.43952 -36.50149,6.49984 -45.37123,21.49724 -57.79093,67.29186 -32.09053,118.32605 13.36228,26.53394 31.10353,44.55794 52.89334,53.73632 10.12669,4.2656 14.24663,4.78749 33.30386,4.21879 18.54714,-0.55348 23.57639,-1.49216 34.17476,-6.37849 z"
     id="path448"
     transform="scale(0.75)" />
  <path class="fill"
     style="fill:#ffffff;stroke-width:2.0712"
     d="M 82.800068,482.15188 C 64.039982,475.56896 49.85246,465.92161 34.422112,449.2554 19.831038,433.49569 8.0597607,411.8026 4.0539588,393.29042 0.45052438,376.63772 2.4368611,347.71282 8.2129092,332.72806 13.937903,317.87575 33.409922,297.2387 48.673139,289.84706 c 12.194231,-5.9054 37.822192,-7.875 54.876711,-4.21746 40.04053,8.58716 78.72146,49.82517 87.08568,92.84264 1.38017,7.09824 2.09733,20.75683 1.59369,30.35242 -0.75454,14.37573 -2.10472,19.86176 -7.67098,31.16842 -8.26973,16.79823 -23.09453,32.02365 -38.53793,39.57941 -16.75172,8.19585 -44.04134,9.30926 -63.220242,2.57939 z m 57.201862,-21.86642 c 10.36342,-5.34978 20.68919,-16.78972 26.51063,-29.37117 6.42349,-13.88264 6.16282,-48.06865 -0.49394,-64.77788 -10.35091,-25.98196 -33.64623,-49.37916 -57.57036,-57.82215 -17.398451,-6.14002 -38.25667,-6.13543 -50.926816,0.0112 -12.466747,6.04797 -27.189622,22.36194 -31.44087,34.83867 -4.250733,12.47521 -4.249288,38.08211 0.0029,52.57644 9.021799,30.75191 34.696884,57.97162 63.570393,67.39482 12.845963,4.19242 39.644263,2.67551 50.347993,-2.84994 z"
     id="path487"
     transform="scale(0.75)" />
  <path class="fill"
     style="fill:#ffffff;stroke-width:2.0712"
     d=""
     id="path526"
     transform="scale(0.75)" />
  <path class="fill"
     style="fill:#ffffff;stroke-width:2.0712"
     d="m 501.22977,1703.1561 c -20.5626,-2.2025 -60.79563,-9.9028 -80.38406,-15.385 C 302.68216,1654.7007 205.51217,1527.9375 136.05404,1316.246 97.670953,1199.2636 73.705476,1076.346 64.041255,946.89649 60.446453,898.74512 62.599454,807.8434 68.195011,771.52104 92.282787,615.1604 129.34303,526.98161 200.21044,457.41198 c 24.84823,-24.3932 30.08949,-28.84922 52.47564,-44.61394 57.55614,-40.53202 140.84495,-78.72411 209.19094,-95.9245 53.565,-13.48052 93.74144,-17.5182 158.4466,-15.9237 65.91644,1.62435 110.7001,9.05607 166.7314,27.6686 57.38557,19.06239 95.03989,41.56308 132.64161,79.26119 100.70047,100.95865 136.71387,275.398 80.20571,388.49577 -11.65624,23.32931 -23.57704,39.3424 -42.52288,57.12065 -29.61338,27.78836 -66.86774,44.40374 -113.36652,50.56126 -105.54364,13.97646 -179.7592,47.20298 -226.26744,101.30069 -13.59459,15.813 -30.38478,48.881 -35.8617,70.6291 -5.23601,20.7913 -7.25856,57.2559 -4.31963,77.8787 6.02122,42.2518 21.27078,74.591 96.5922,204.8397 42.40981,73.3367 65.93555,127.0689 71.64031,163.6246 3.30909,21.2044 1.20863,49.287 -5.20502,69.5898 -18.60331,58.8899 -71.23641,98.3905 -146.14939,109.6836 -17.95659,2.707 -73.75728,3.6364 -93.2125,1.5526 z m 94.48598,-22.4334 c 78.90189,-13.5582 126.97828,-59.657 130.70685,-125.3305 1.31024,-23.0781 -2.30015,-44.2422 -12.29055,-72.047 -8.43189,-23.4671 -41.0897,-87.5256 -67.23867,-131.8889 -77.76949,-131.9406 -94.65175,-175.6662 -91.16361,-236.1165 3.40797,-59.0603 24.28293,-103.9674 66.77576,-143.65106 47.8673,-44.70278 113.06662,-71.75939 207.78588,-86.22763 41.53997,-6.34518 57.30498,-10.73032 79.06537,-21.99256 C 989.25676,822.11577 1024.0016,715.54357 997.01482,594.59652 973.5983,489.65023 910.53622,405.20653 826.11995,365.7586 788.56403,348.20861 738.97387,333.79542 689.70874,326.11119 660.5138,321.55745 579.62866,319.76749 547.51604,322.96451 470.19528,330.66231 413.3767,348.04947 333.46278,388.46737 196.48375,457.74698 133.04258,545.5767 99.610402,712.21913 84.735567,786.36261 83.87741,795.51372 83.949397,879.2233 c 0.05064,58.8818 0.902787,84.07117 3.678593,108.73787 28.8183,256.08873 104.89839,473.36523 207.0551,591.32683 34.93342,40.3381 72.12655,67.8074 112.23384,82.8915 15.58856,5.8627 55.8918,15.0051 81.88566,18.5749 28.1182,3.8616 84.35324,3.8449 106.91316,-0.032 z"
     id="path565"
     transform="scale(0.75)" />
</svg>
