<?xml version="1.0" encoding="UTF-8" standalone="no"?>
<svg
   version="1.0"
   width="1010.000000pt"
   height="1280.000000pt"
   viewBox="0 0 1010.000000 1280.000000"
   preserveAspectRatio="xMidYMid meet"
   id="svg47"
   sodipodi:docname="RightFootSVG.svg"
   inkscape:version="1.1.1 (3bf5ae0d25, 2021-09-20)"
   xmlns:inkscape="http://www.inkscape.org/namespaces/inkscape"
   xmlns:sodipodi="http://sodipodi.sourceforge.net/DTD/sodipodi-0.dtd"
   xmlns="http://www.w3.org/2000/svg"
   xmlns:svg="http://www.w3.org/2000/svg">
  <defs
     id="defs51">
    <rect
       x="40.48273"
       y="890.62005"
       width="524.14482"
       height="784.08655"
       id="rect59126" />
    <rect
       x="526.27549"
       y="937.49479"
       width="513.49147"
       height="752.1265"
       id="rect52410" />
  </defs>
  <sodipodi:namedview
     id="namedview49"
     pagecolor="#505050"
     bordercolor="#eeeeee"
     borderopacity="1"
     inkscape:pageshadow="0"
     inkscape:pageopacity="0"
     inkscape:pagecheckerboard="0"
     inkscape:document-units="pt"
     showgrid="false"
     inkscape:zoom="0.46933594"
     inkscape:cx="675.42239"
     inkscape:cy="854.39866"
     inkscape:window-width="1815"
     inkscape:window-height="1360"
     inkscape:window-x="1609"
     inkscape:window-y="0"
     inkscape:window-maximized="0"
     inkscape:current-layer="svg47" />
  <metadata
     id="metadata31">
Created by potrace 1.15, written by Peter Selinger 2001-2017
</metadata>
  <g
     transform="matrix(-0.1,0,0,-0.1,1010.3488,1280)"
     fill="#000000"
     stroke="none"
     id="g45">
    <path
       class="fill"
       d="m 8370,12786 c -591,-86 -1096,-464 -1360,-1020 -265,-557 -227,-1194 101,-1678 84,-124 266,-305 388,-387 414,-275 907,-333 1396,-164 769,267 1283,1075 1194,1881 -22,198 -69,362 -154,537 -209,428 -579,715 -1053,815 -127,27 -380,35 -512,16 z m 419,-172 c 802,-119 1298,-913 1094,-1754 -72,-296 -220,-557 -443,-780 -169,-169 -339,-282 -545,-363 -386,-152 -790,-141 -1140,33 -388,192 -651,551 -731,995 -24,133 -24,383 0,515 113,633 565,1144 1161,1314 192,55 407,69 604,40 z"
       id="path33" />
    <path
       class="fill"
       d="m 3620,12610 c -270,-42 -530,-278 -620,-561 -47,-150 -64,-382 -40,-554 46,-319 189,-573 402,-713 325,-211 669,-186 929,68 207,202 291,441 276,780 -15,332 -139,622 -334,784 -82,68 -241,151 -335,175 -91,24 -206,32 -278,21 z m 269,-196 c 199,-67 340,-199 423,-396 103,-245 116,-572 33,-795 -66,-174 -221,-332 -384,-389 -75,-27 -198,-32 -279,-13 -71,17 -199,80 -270,133 -113,84 -208,243 -259,434 -24,88 -27,115 -27,292 -1,175 1,203 22,274 45,157 138,297 254,382 153,112 309,137 487,78 z"
       id="path35" />
    <path
       class="fill"
       d="m 5489,12590 c -64,-10 -175,-50 -228,-82 -284,-170 -492,-557 -508,-943 -6,-139 4,-233 36,-332 67,-208 229,-396 431,-498 144,-73 284,-101 458,-92 154,8 233,33 352,112 243,161 434,514 469,866 10,99 -1,259 -24,344 -77,295 -331,535 -645,610 -79,19 -265,27 -341,15 z m 326,-184 c 33,-9 98,-35 145,-58 68,-34 102,-59 170,-128 162,-162 226,-349 200,-587 -42,-394 -287,-749 -560,-812 -25,-6 -90,-11 -146,-11 -201,0 -361,66 -504,209 -98,98 -146,180 -181,306 -19,70 -21,97 -16,220 5,151 21,229 76,371 101,262 300,464 496,503 69,14 248,6 320,-13 z"
       id="path37" />
    <path
       class="fill"
       d="m 1870,11865 c -257,-52 -478,-228 -571,-455 -38,-93 -49,-156 -49,-274 0,-348 247,-748 555,-900 379,-188 875,-19 1051,359 48,104 64,180 65,302 0,429 -345,891 -723,967 -92,19 -238,19 -328,1 z m 308,-170 c 179,-42 347,-188 467,-407 80,-147 126,-345 106,-463 -47,-292 -299,-495 -615,-495 -110,0 -186,18 -277,66 -131,69 -264,217 -346,385 -54,110 -72,166 -88,267 -39,258 80,479 323,601 112,57 299,77 430,46 z"
       id="path39" />
    <path
       class="fill"
       d="m 462,10670 c -111,-30 -188,-75 -272,-160 -83,-83 -126,-155 -161,-270 -30,-96 -33,-296 -6,-403 86,-345 376,-633 693,-688 103,-18 254,-7 337,25 188,71 327,229 383,436 26,96 23,289 -5,395 -64,238 -236,465 -444,584 -155,88 -374,122 -525,81 z m 293,-170 c 279,-71 506,-353 531,-659 16,-190 -64,-372 -206,-467 -147,-98 -381,-84 -561,34 -350,229 -460,721 -219,976 53,56 141,110 206,125 67,15 167,12 249,-9 z"
       id="path41" />
    <path
       class="fill"
       d="M 4195,10549 C 3593,10503 3117,10369 2515,10076 2032,9841 1685,9595 1400,9285 952,8798 694,8173 530,7178 464,6779 444,6495 453,6110 494,4476 969,2619 1637,1485 2084,727 2585,281 3161,130 3713,-15 4233,-37 4650,66 c 504,124 848,450 943,894 26,124 28,338 4,461 -61,308 -218,655 -565,1249 -462,790 -591,1047 -667,1333 -34,126 -47,313 -34,476 36,453 252,813 650,1081 341,229 811,390 1304,444 241,27 400,72 590,166 657,327 960,1142 785,2105 -78,422 -277,883 -528,1217 -308,410 -664,661 -1202,846 -274,94 -560,157 -910,198 -152,18 -658,26 -825,13 z m 666,-169 c 677,-51 1310,-255 1703,-548 118,-88 303,-271 397,-392 464,-600 674,-1429 538,-2120 -91,-460 -334,-812 -685,-992 -165,-85 -310,-127 -529,-153 -443,-53 -820,-161 -1148,-327 -566,-287 -892,-715 -967,-1268 -16,-119 -14,-397 4,-498 53,-291 190,-597 540,-1202 104,-179 192,-329 196,-335 24,-31 205,-363 270,-495 132,-264 192,-417 238,-600 36,-146 37,-352 3,-485 C 5240,264 4405,1 3250,281 2750,403 2325,743 1923,1345 1268,2326 783,3955 643,5640 c -21,259 -24,904 -5,1090 29,281 104,708 178,1009 259,1059 743,1670 1705,2151 599,300 1044,433 1619,485 181,16 542,18 721,5 z"
       id="path43" />
  </g>
  <path
     class="fill"
     style="fill:#000000;fill-opacity:1;stroke-width:2.13067"
     d="m 764.91425,1680.9822 c -44.52727,-5.5844 -81.20678,-21.3733 -105.2259,-45.2953 -37.38167,-37.2304 -46.76148,-84.3602 -28.06625,-141.0219 10.39202,-31.4964 34.6843,-79.9657 74.27698,-148.2018 55.24517,-95.2124 70.99367,-127.4934 81.55268,-167.1649 5.3036,-19.9263 5.55992,-23.163 4.63067,-58.4733 -0.86084,-32.7095 -1.69996,-39.754 -6.71677,-56.3872 -14.82806,-49.1623 -44.59079,-88.72916 -89.1764,-118.552 C 648.05674,913.6905 595.14739,895.29436 515.84159,883.18046 463.93077,875.25113 439.21255,865.78111 411.3731,843.15667 350.31457,793.53588 327.96532,693.76662 354.01322,587.09646 c 10.55227,-43.21318 31.51478,-89.65327 56.76428,-125.7549 16.79279,-24.01026 51.0351,-57.7397 73.45173,-72.35159 47.21786,-30.77816 110.74095,-52.15757 184.80115,-62.19691 35.4725,-4.80852 109.79936,-4.7524 148.0509,0.1118 67.40977,8.57205 129.76686,29.14748 201.37902,66.44728 132.0494,68.77912 194.0462,156.05006 226.8692,319.35697 15.1471,75.36271 16.7432,91.16363 16.5728,164.06159 -0.1042,44.55638 -1.2827,77.14466 -3.6215,100.14149 -27.7591,272.94441 -114.1329,509.45221 -226.8253,621.09031 -47.79107,47.344 -92.52148,68.6512 -167.46882,79.7734 -28.974,4.2997 -77.7634,5.8787 -99.07243,3.2063 z"
     id="path48681"
     transform="scale(0.75)" />
  <path
     class="fill"
     style="fill:#000000;fill-opacity:1;stroke-width:2.13067"
     d="M 203.81935,421.91574 C 158.33901,413.64471 120.0875,392.82984 86.943785,358.31699 50.643986,320.51767 31.34552,279.89453 25.719551,229.44039 21.634185,192.80251 27.624673,157.75472 43.651731,124.52688 67.025638,76.067298 106.48206,43.267025 158.01572,29.455672 c 24.93523,-6.682806 65.43433,-6.592871 91.27267,0.202688 73.65287,19.370922 131.72997,76.75947 154.77636,152.94139 4.74236,15.67628 5.82932,24.01929 6.63327,50.91314 1.15341,38.58483 -2.77119,58.51704 -17.60287,89.40093 -22.36277,46.56577 -62.6727,80.67068 -111.92908,94.69948 -17.9154,5.10253 -60.05733,7.44669 -77.34672,4.30244 z"
     id="path48720"
     transform="scale(0.75)" />
  <path
     class="fill"
     style="fill:#000000;fill-opacity:1;stroke-width:2.13067"
     d="m 569.20569,259.60129 c -14.66381,-5.63274 -35.27122,-25.69613 -45.60762,-44.40362 -15.79867,-28.59346 -23.34101,-64.1646 -18.67956,-88.09641 9.09782,-46.707996 48.7171,-77.753786 96.49532,-75.614021 21.73299,0.97332 32.6752,6.052962 49.20065,22.840137 15.03175,15.269822 25.64091,33.039434 32.58532,54.578154 4.48465,13.90959 5.54868,21.56777 5.78381,41.62816 0.28517,24.3307 0.20671,24.74783 -7.65035,40.67563 -8.51669,17.26499 -21.36911,31.09348 -37.90209,40.78056 -21.09337,12.35913 -53.27468,15.65915 -74.22548,7.61141 z"
     id="path48759"
     transform="scale(0.75)" />
  <path
     class="fill"
     style="fill:#000000;fill-opacity:1;stroke-width:2.13067"
     d="m 822.43861,284.67345 c -18.0056,-4.01001 -33.80201,-13.27685 -49.00541,-28.7486 -25.71366,-26.16754 -35.38803,-54.9898 -33.33757,-99.32061 1.35364,-29.26566 4.91774,-44.48828 15.71401,-67.116101 20.91229,-43.829888 73.91744,-71.924576 115.27585,-61.100459 37.9182,9.92376 69.42795,44.45861 78.10472,85.60316 7.34559,34.83222 2.25706,77.58348 -13.0134,109.33206 -14.92437,31.02905 -47.3703,56.00659 -80.57146,62.02559 -15.1765,2.75131 -18.04392,2.69295 -33.16674,-0.67504 z m 52.20142,-27.03209 c 26.32404,-12.77332 44.60488,-36.71516 53.11746,-69.56627 5.16273,-19.92365 4.57939,-63.0679 -1.0818,-80.0108 C 909.28268,56.010283 862.68737,33.606351 817.11194,55.383903 779.92373,73.153739 760.61636,110.63143 760.67447,164.93508 c 0.0388,36.27631 7.22733,57.02444 26.68881,77.03177 17.68798,18.1841 32.94105,24.56354 56.38203,23.58126 12.97119,-0.54356 18.78828,-2.0323 30.89472,-7.90675 z"
     id="path48798"
     transform="scale(0.75)" />
  <path
     class="fill"
     style="fill:#000000;fill-opacity:1;stroke-width:2.13067"
     d="m 817.11194,259.98295 c -21.81148,-8.63362 -42.37475,-32.08883 -50.12174,-57.17068 -8.81135,-28.52782 -4.362,-77.17179 9.57425,-104.673649 15.58346,-30.752489 48.58588,-50.892824 79.71723,-48.648918 27.12511,1.955142 48.97237,18.452893 63.59491,48.023093 7.99029,16.158234 8.03383,16.390504 8.76315,46.744374 0.81976,34.11858 -2.34976,49.6054 -15.05804,73.57614 -18.60184,35.08732 -64.09535,54.96438 -96.46976,42.14964 z"
     id="path48837"
     transform="scale(0.75)" />
  <path
     class="fill"
     style="fill:#000000;fill-opacity:1;stroke-width:2.13067"
     d="m 1039.632,325.35091 c -27.3841,-7.77059 -47.64868,-27.07706 -55.47873,-52.8558 -4.13694,-13.62 -4.35101,-16.61306 -2.14399,-29.9771 6.20582,-37.57764 30.39972,-73.03164 60.22882,-88.25998 15.004,-7.65983 38.8121,-9.39549 57.8495,-4.21735 33.1152,9.00724 56.8662,38.86529 56.8662,71.48807 0,35.2362 -29.1448,82.66833 -60.5309,98.512 -10.3783,5.23897 -16.1193,6.63335 -29.9535,7.27517 -10.0743,0.46738 -21.114,-0.34094 -26.8374,-1.96501 z"
     id="path48876"
     transform="scale(0.75)" />
  <path
     class="fill"
     style="fill:#000000;fill-opacity:1;stroke-width:2.13067"
     d="m 1218.7294,462.49528 c -31.3618,-9.53983 -48.7896,-45.12091 -39.6241,-80.89753 10.0581,-39.26055 39.1064,-68.37932 74.794,-74.97532 43.6131,-8.06085 77.1738,31.64638 67.2304,79.54346 -5.2327,25.20573 -23.3271,51.7929 -44.3204,65.12257 -17.6107,11.18189 -42.4227,15.96951 -58.0799,11.20682 z"
     id="path48915"
     transform="scale(0.75)" />
  <text
     xml:space="preserve"
     transform="scale(0.75)"
     id="text52408"
     style="fill:black;fill-opacity:1;line-height:1.25;stroke:none;font-family:sans-serif;font-style:normal;font-weight:normal;font-size:40px;white-space:pre;shape-inside:url(#rect52410)" />
  <path
     style="fill:#ffffff;stroke-width:2.13067"
     d="m 747.86516,1677.0618 c -50.87711,-11.3408 -84.18477,-31.9559 -105.89042,-65.5388 -13.57805,-21.0079 -16.63627,-33.3553 -16.54192,-66.7873 0.0763,-27.0175 0.52167,-30.0577 7.33551,-50.0707 9.29543,-27.3016 42.37945,-92.5748 79.91568,-157.6696 38.75546,-67.2092 60.11536,-109.5299 70.43741,-139.5589 l 8.42248,-24.5027 -0.0784,-46.8747 c -0.0763,-45.6716 -0.23312,-47.3396 -6.10967,-64.9854 -19.01259,-57.0902 -52.7076,-96.48985 -110.97376,-129.76209 -37.6073,-21.47528 -86.87557,-37.06507 -151.9304,-48.07486 -57.34281,-9.70461 -78.41063,-17.29618 -106.41015,-38.34379 -34.41943,-25.87356 -58.239,-69.72784 -67.8618,-124.94057 -4.63428,-26.59008 -3.04924,-85.25587 3.11365,-115.24323 9.66828,-47.04386 32.19245,-100.53941 58.51743,-138.98053 15.01395,-21.92416 44.69887,-52.90069 66.09863,-68.97463 29.15492,-21.89904 78.1911,-43.5085 126.27129,-55.64573 52.19394,-13.1757 74.9946,-15.82587 137.16177,-15.94264 35.31153,-0.0663 64.04528,0.93641 76.70412,2.67679 116.75277,16.05158 243.99619,75.64613 315.77549,147.89364 61.6082,62.0101 96.6085,142.72331 119.9133,276.52883 15.9637,91.65623 12.3756,205.72755 -10.7789,342.67591 -37.5263,221.9517 -115.2502,407.0734 -210.7647,501.9964 -57.9143,57.5557 -120.78051,81.0638 -222.66787,83.2643 -35.25302,0.7614 -44.29207,0.2857 -59.65876,-3.1397 z"
     id="path138"
     transform="scale(0.75)" />
  <path
     style="fill:#ffffff;stroke-width:2.13067"
     d="m 749.53864,1701.2321 c -43.14671,-6.7184 -79.90827,-24.0627 -105.96626,-49.9957 -25.74948,-25.6259 -38.72727,-52.048 -42.6731,-86.8802 -6.13809,-54.1844 11.03106,-99.6329 88.30509,-233.7528 71.51415,-124.1228 84.35082,-158.0782 81.35445,-215.1977 -2.66591,-50.8204 -20.18971,-90.6451 -54.99152,-124.97426 C 673.57096,949.00546 600.69936,917.67794 520.94881,906.76493 472.35642,900.11555 447.41608,892.75518 420.80732,877.21124 319.8859,818.2563 290.87757,665.63066 352.9659,520.26757 c 34.10173,-79.83998 85.23052,-135.93888 155.73488,-170.87349 39.49154,-19.5679 92.62572,-35.19806 149.67625,-44.02937 35.36245,-5.47404 135.65547,-5.48311 170.45359,-0.0154 109.30974,17.17542 229.04388,71.37418 302.93888,137.12807 80.6209,71.73884 124.2722,170.64431 147.7263,334.72009 19.4267,135.90193 -9.3119,361.09113 -69.1301,541.68723 -44.8334,135.3557 -106.0525,243.6677 -172.169,304.6103 -50.17531,46.2489 -102.85229,68.5856 -185.87282,78.8161 -24.58527,3.0296 -80.14434,2.4463 -102.78524,-1.079 z m 86.14724,-18.0412 c 83.39462,-7.9082 132.67216,-26.3852 181.73512,-68.1431 30.8272,-26.2372 70.4471,-77.2606 98.8049,-127.2434 61.8713,-109.0527 111.7015,-270.583 135.3767,-438.8389 10.0059,-71.10996 12.2401,-102.34641 12.3167,-172.1948 0.08,-73.23882 -1.7687,-91.62156 -16.5666,-164.70458 -21.7611,-107.47232 -53.6733,-177.17634 -106.3789,-232.35733 -37.2761,-39.02679 -72.3981,-63.78188 -134.5227,-94.81564 -68.64131,-34.28917 -124.38937,-51.97811 -189.33916,-60.07757 -37.17766,-4.63618 -114.36648,-4.6141 -149.1469,0.0427 -90.23541,12.08164 -167.66446,42.60569 -212.93563,83.94341 -60.36681,55.12174 -99.42075,132.30856 -111.01673,219.41521 -16.12695,121.14233 30.94105,216.84636 121.53871,247.1264 7.03121,2.35 29.20271,6.78004 49.27,9.84452 61.26319,9.3555 95.88358,19.13546 137.01301,38.70501 70.10818,33.35775 112.8937,79.18247 131.47118,140.81027 4.89076,16.2243 5.78455,23.6748 6.65212,55.4511 0.82619,30.2608 0.34268,39.4298 -2.75268,52.2014 -8.55346,35.2919 -27.17437,75.2916 -68.43102,146.997 -13.67407,23.766 -30.62655,53.2783 -37.67216,65.5829 -7.04562,12.3046 -20.22724,37.7128 -29.2925,56.4627 -26.16469,54.1171 -33.32231,80.5389 -31.1336,114.927 5.63306,88.5052 90.6349,138.6602 215.01014,126.8657 z"
     id="path177"
     transform="scale(0.75)" />
  <path
     style="fill:#ffffff;stroke-width:2.13067"
     d="M 187.21367,416.79823 C 114.01691,397.41736 52.580327,335.39895 32.613503,260.73392 27.723244,242.44702 26.987187,235.52691 26.976839,207.74032 26.966188,179.1406 27.565073,173.8115 32.672829,157.05526 52.071772,93.416113 98.092437,46.594339 156.60424,30.966502 c 17.29013,-4.617996 56.11688,-6.491303 74.57345,-3.598009 76.9301,12.059736 141.96401,69.317817 169.7766,149.477117 7.00701,20.19502 7.02314,20.33649 7.04604,61.78943 0.0213,37.79391 -0.42219,42.87683 -4.90378,56.25378 -18.44834,55.06612 -56.94168,96.99559 -106.48905,115.99491 -31.78742,12.18911 -76.55488,14.60951 -109.39383,5.9145 z"
     id="path216"
     transform="scale(0.75)" />
  <path
     style="fill:#ffffff;stroke-width:2.13067"
     d="M 210.61092,445.22612 C 176.75829,441.27473 137.77556,426.63997 108.40293,406.85559 91.050042,395.16729 62.235924,367.26331 49.104173,349.42988 26.583558,318.84598 9.3094957,277.20023 4.1107385,240.95589 0.71466528,217.27938 2.6848688,176.37784 8.2432298,155.16512 27.537714,81.530379 78.37452,28.940219 150.43588,8.068269 c 14.77408,-4.2791859 21.36045,-4.8574017 54.10844,-4.7501664 34.37489,0.1125633 38.76767,0.5766609 56.25052,5.9428683 38.39767,11.7858381 67.7214,28.5758031 95.95046,54.9386341 83.77965,78.240945 102.1284,204.443105 42.71752,293.809795 -15.07142,22.67067 -47.63342,52.37409 -70.37061,64.19287 -23.74954,12.34502 -47.4783,19.85143 -72.34648,22.88625 -21.03418,2.56693 -25.21524,2.57941 -46.13481,0.13764 z m 51.46149,-21.34584 c 34.50153,-5.53427 68.67254,-22.3258 93.94,-46.16186 18.20771,-17.1762 27.11932,-29.15323 38.27367,-51.43898 22.97941,-45.91139 25.78211,-105.59749 7.42577,-158.13738 C 374.44548,90.099676 305.05556,32.956374 225.85102,23.318847 106.74268,8.825869 11.087804,106.24935 23.670388,229.23768 c 5.00018,48.8742 25.29426,92.95444 59.755695,129.79383 46.652977,49.87216 115.718077,74.94286 178.646327,64.84877 z"
     id="path255"
     transform="scale(0.75)" />
  <path
     style="fill:#ffffff;stroke-width:2.13067"
     d="m 567.44279,257.01495 c -25.19886,-12.01032 -48.77479,-45.6881 -58.22512,-83.17351 -12.63685,-50.12498 6.33934,-93.03675 50.23206,-113.592177 11.5172,-5.393627 14.80316,-5.917178 37.13787,-5.917178 22.79285,0 25.18662,0.40206 34.30345,5.761664 13.10581,7.704646 31.20716,27.610723 39.83354,43.804991 12.27417,23.04227 15.5766,35.4949 16.80271,63.35885 l 1.12509,25.56804 -8.72,17.26245 c -10.58148,20.94751 -24.39278,34.6223 -44.51689,44.07689 -12.53936,5.89116 -16.98138,6.81612 -35.6319,7.41963 -19.07347,0.61719 -22.46322,0.13822 -32.34081,-4.56965 z"
     id="path294"
     transform="scale(0.75)" />
  <path
     style="fill:#ffffff;stroke-width:2.13067"
     d="m 578.53361,285.36142 c -19.18296,-2.93604 -34.27108,-11.30851 -51.23801,-28.43224 -25.79054,-26.02886 -42.92731,-65.45829 -45.16734,-103.9241 -2.22391,-38.18889 7.06316,-64.629255 31.36321,-89.291285 19.64778,-19.940467 42.51392,-31.047702 70.70948,-34.34716 15.95755,-1.86736 23.2798,-1.815542 32.41761,0.22941 38.71668,8.664412 70.30919,41.527428 86.97395,90.471645 5.59196,16.42351 6.7875,23.57593 7.59618,45.44448 0.81504,22.04107 0.29041,28.15681 -3.48035,40.57121 -16.36135,53.86618 -72.02055,88.02574 -129.17473,79.27804 z m 39.78848,-21.42523 c 24.01325,-5.0991 49.77569,-23.76253 62.29918,-45.13225 22.74291,-38.80785 9.65372,-107.97146 -27.5424,-145.53462 -20.15829,-20.357212 -27.07735,-23.198575 -56.49127,-23.198575 -23.39296,0 -25.1995,0.326606 -39.88755,7.211284 -36.43285,17.077039 -59.07375,56.164051 -54.94971,94.864571 5.75922,54.0453 36.45032,100.87453 73.53056,112.19469 8.13324,2.483 30.42843,2.27315 43.04119,-0.4051 z"
     id="path333"
     transform="scale(0.75)" />
  <path
     style="fill:#ffffff;stroke-width:2.13067"
     d="m 819.24261,259.58304 c -26.71098,-10.04568 -49.49655,-40.91738 -54.47292,-73.80423 -2.9185,-19.28723 0.14257,-51.36395 6.8521,-71.80258 8.73138,-26.597612 29.84116,-49.335539 54.34591,-58.537486 16.31647,-6.127105 39.77782,-5.438013 54.13931,1.590145 14.46198,7.077337 28.80168,22.692193 38.34022,41.749613 l 8.39421,16.771118 -0.0253,31.18066 c -0.0273,33.69241 -2.25144,46.16347 -11.66389,65.40185 -8.38659,17.14156 -22.19102,31.13572 -39.90404,40.45249 -13.65997,7.18492 -17.56851,8.23904 -32.56824,8.78358 -9.37495,0.34033 -19.92177,-0.46299 -23.43737,-1.78516 z"
     id="path372"
     transform="scale(0.75)" />
  <path
     style="fill:#ffffff;stroke-width:2.13067"
     d="m 821.37328,284.63401 c -17.52882,-4.35045 -33.27777,-13.7871 -47.94008,-28.72529 -25.89289,-26.38012 -35.40062,-54.70134 -33.33757,-99.30448 1.35364,-29.26566 4.91774,-44.48828 15.71401,-67.116101 20.91229,-43.829888 73.91744,-71.924576 115.27585,-61.100459 37.9182,9.92376 69.42795,44.45861 78.10472,85.60316 7.37495,34.97151 2.26132,77.55551 -13.17048,109.67769 -14.3225,29.8131 -44.9746,54.10063 -76.78486,60.84137 -17.12403,3.62866 -23.6548,3.65007 -37.86159,0.12411 z m 52.69213,-27.27183 c 20.37988,-9.68081 33.07988,-22.29991 43.12611,-42.85138 11.85916,-24.26015 14.49646,-38.2266 13.57237,-71.87573 l -0.79952,-29.11298 -9.02849,-18.220236 C 901.30465,55.684376 867.52371,39.237213 829.50346,50.785508 c -16.06301,4.878993 -35.2525,17.371207 -43.68912,28.441308 -16.25195,21.324954 -25.16516,51.078704 -25.16516,84.005394 0,37.45145 7.67938,59.44191 27.77595,79.53848 25.19812,25.19813 53.24972,29.97759 85.64028,14.59149 z"
     id="path411"
     transform="scale(0.75)" />
  <path
     style="fill:#ffffff;stroke-width:2.13067"
     d="m 1035.7095,322.90167 c -29.2047,-9.47882 -53.51768,-40.90741 -53.44535,-69.08716 0.0643,-25.06818 14.96179,-57.83585 35.91155,-78.98922 20.5835,-20.78354 29.7442,-24.61306 58.878,-24.61306 19.6324,0 25.0806,0.75895 33.5597,4.67492 15.1723,7.00722 31.9958,24.03913 38.8655,39.34691 5.2751,11.75435 5.7516,14.82295 4.9395,31.80857 -0.8268,17.29289 -1.7163,20.44601 -11.1019,39.35221 -11.8962,23.96381 -31.8675,45.9901 -49.2175,54.28198 -13.2729,6.34338 -43.6175,8.01931 -58.3895,3.22485 z"
     id="path450"
     transform="scale(0.75)" />
  <path
     style="fill:#ffffff;stroke-width:2.13067"
     d="m 1044.0283,349.39268 c -35.7953,-6.22216 -67.13364,-31.31745 -79.77525,-63.8829 -19.28033,-49.66714 17.06016,-128.0691 70.86615,-152.88857 58.7461,-27.09823 135.6834,13.12254 143.1026,74.81023 4.5483,37.81733 -11.3473,79.15281 -42.3936,110.24172 -27.2719,27.30943 -57.3607,37.70595 -91.7999,31.71952 z m 50.0755,-25.31345 c 37.4752,-16.57703 68.1702,-69.5803 64.3965,-111.19774 -2.2942,-25.30081 -20.203,-49.22184 -45.8259,-61.21029 -10.8858,-5.09325 -14.6794,-5.7014 -35.6207,-5.71032 -21.5481,-0.009 -24.4497,0.48706 -35.9956,6.15618 -24.1192,11.84276 -47.57654,41.65212 -57.18365,72.66862 -10.03289,32.39115 -3.60596,60.83542 18.46125,81.70568 12.6131,11.92895 19.9054,16.12541 35.791,20.59635 15.5895,4.38766 42.5302,2.93973 55.9771,-3.00848 z"
     id="path489"
     transform="scale(0.75)" />
  <path
     style="fill:#ffffff;stroke-width:2.13067"
     d="m 1213.251,459.46222 c -28.74,-13.07992 -42.2821,-50.23274 -30.787,-84.4643 12.2798,-36.56824 44.0295,-64.66381 76.3542,-67.56641 23.4707,-2.10755 43.1606,8.48483 54.784,29.4716 5.8622,10.58456 6.3479,13.09998 6.3479,32.87864 0,20.62174 -0.3107,22.04617 -8.363,38.35205 -10.3842,21.02772 -27.8529,39.22991 -45.3395,47.24317 -14.9665,6.8584 -42.2775,8.96368 -52.9966,4.08525 z"
     id="path528"
     transform="scale(0.75)" />
  <path
     style="fill:#ffffff;stroke-width:2.13067"
     d="m 1223.0046,485.78299 c -29.1231,-3.76516 -52.2987,-23.39307 -63.6062,-53.86958 -3.4802,-9.37987 -4.5621,-17.0293 -4.5203,-31.96005 0.095,-33.71772 12.4884,-60.84677 39.5834,-86.6443 23.4218,-22.30023 46.9739,-31.29003 77.2215,-29.47531 20.2754,1.21643 34.8581,8.12254 50.0197,23.68834 16.3227,16.75796 21.3732,29.68153 22.3817,57.27178 1.057,28.91991 -3.5281,45.54365 -18.901,68.52804 -25.5395,38.18469 -63.1687,57.50447 -102.1788,52.46108 z m 46.3991,-27.82029 c 53.2245,-26.2023 73.5396,-102.06471 36.8866,-137.74466 -15.198,-14.79458 -31.5156,-19.50197 -53.722,-15.49805 -37.0923,6.68791 -68.6397,39.79598 -76.5148,80.30004 -6.7388,34.65977 10.4445,69.26508 39.0532,78.64854 14.757,4.84023 37.7919,2.41958 54.297,-5.70587 z"
     id="path567"
     transform="scale(0.75)" />
</svg>
